<svg width="119" height="44" fill="none" xmlns="http://www.w3.org/2000/svg"><path d="M.015 40.762c.82-1.714 1.463-3.495 2.194-5.253 3.84-9.28 7.667-18.56 11.479-27.839.439-1.07.848-2.146 1.36-3.187a5.124 5.124 0 014.785-2.948 5.111 5.111 0 014.603 3.227c4.875 11.853 9.75 23.71 14.624 35.568.175.432.131.52-.337.512h-5.498a.467.467 0 01-.534-.351 11470.6 11470.6 0 00-11.742-29.744 622.52 622.52 0 01-1.397-3.56c-3.846 9.633-7.633 19.15-11.428 28.674a1 1 0 00.577.058h10.361c.388 0 .512.081.497.491v3.949c0 .403-.087.498-.49.49H.009l.007-.087zm113.617.132h-5.981a.47.47 0 01-.534-.352 6401.202 6401.202 0 00-7.765-19.655.234.234 0 010-.103c0-.095.11-.08.175-.08h5.55c.3 0 .373.139.468.373 1.097 2.674 2.193 5.348 3.29 8.059a.681.681 0 00.183.27 13.285 13.285 0 002.149-4.395c1.36-5.062.505-9.721-2.807-13.81a13.888 13.888 0 00-8.847-5.128 14.374 14.374 0 00-10.068 2.205 14.424 14.424 0 00-6.018 8.382 14.605 14.605 0 002.778 13.472 13.888 13.888 0 008.526 5.128c1.208.195 2.434.259 3.656.19a.51.51 0 01.57.396c.57 1.466 1.155 2.93 1.74 4.396.11.278.161.396-.248.447a20.274 20.274 0 01-15.735-4.066A19.785 19.785 0 0177.3 24.9a20.084 20.084 0 013.787-16.586A20.213 20.213 0 0192.427.99a19.048 19.048 0 015.711-.593 20.372 20.372 0 0114.77 7.143 19.322 19.322 0 014.584 9.78 19.812 19.812 0 01-4.263 16.117 20.041 20.041 0 01-1.52 1.641.534.534 0 00-.147.733c.695 1.633 1.353 3.274 2.026 4.915.014.037.022.037.044.169zM59.342 7.692H45.406c-.439 0-.556-.095-.548-.542V2.234c0-.344.088-.44.438-.432h28.077c.351 0 .446.08.446.432v4.967c0 .396-.095.491-.49.491-4.664-.005-9.327-.005-13.987 0zm0 33.202h-13.98c-.373 0-.512-.052-.504-.477v-5.01c0-.36.102-.44.446-.44h28.07c.401 0 .445.139.438.483v4.96c0 .41-.102.49-.497.484-4.65-.008-9.315 0-13.973 0zm-4.058-16.718h-9.93c-.387 0-.504-.08-.496-.491v-5.011c0-.359.102-.432.446-.432h20.004c.351 0 .498.051.49.454v5.01c0 .39-.124.462-.482.462-3.349 0-6.69.008-10.032.008z" fill="#fff"/></svg>