<svg width="24" height="24" fill="none" xmlns="http://www.w3.org/2000/svg"><path fill-rule="evenodd" clip-rule="evenodd" d="M13.553 13.817a2.659 2.659 0 01-1.543.482c-.54 0-1.08-.154-1.543-.482L2.597 8.37A.38.38 0 002 8.677v9.607c0 .616.25 1.174.636 1.579.405.423.984.692 1.62.692h15.488c.636 0 1.215-.269 1.62-.692.385-.405.636-.963.636-1.58V8.678c0-.308-.347-.5-.598-.308l-7.85 5.448z" fill="#00029C"/><path fill-rule="evenodd" clip-rule="evenodd" d="M11.354 12.547c.386.27.926.27 1.312 0l8.814-6.103c.173-.116.212-.366.096-.54A2.266 2.266 0 0019.763 5H4.276c-.733 0-1.388.347-1.813.905a.363.363 0 00.097.539l8.794 6.103z" fill="#00029C"/></svg>