<svg width="24" height="24" fill="none" xmlns="http://www.w3.org/2000/svg"><path fill-rule="evenodd" clip-rule="evenodd" d="M18.38 5.616A9.078 9.078 0 0011.99 3C7.064 3 3 7.06 3 11.98c0 1.548.461 3.034 1.236 4.353a.519.519 0 01.021.167L3.21 20.205c-.105.335.21.67.565.586l3.898-.942c.042-.021.105 0 .147.02C9.119 20.562 10.523 21 12.01 21c4.946 0 8.99-4.06 8.99-8.98a9.07 9.07 0 00-2.62-6.404z" fill="#fff"/><path fill-rule="evenodd" clip-rule="evenodd" d="M16.139 13.82c-.23-.104-1.341-.648-1.53-.732-.189-.083-.356-.104-.503.105-.147.23-.587.732-.712.879-.126.147-.273.168-.482.063-.23-.105-.943-.356-1.803-1.11-.67-.585-1.131-1.339-1.257-1.548-.125-.23-.02-.356.105-.46.105-.105.23-.273.335-.399.105-.125.147-.23.23-.376.085-.147.043-.272-.02-.398-.063-.105-.503-1.214-.692-1.674-.21-.419-.398-.356-.524-.356h-.419a.903.903 0 00-.607.272c-.21.23-.776.774-.776 1.884 0 1.109.797 2.176.922 2.323.105.147 1.593 2.428 3.835 3.39.524.23.964.377 1.278.482a3.09 3.09 0 001.425.084c.42-.063 1.341-.544 1.53-1.068.189-.523.189-.983.126-1.067-.084-.105-.23-.168-.461-.293z" fill="#01049B"/></svg>