<svg width="23" height="23" fill="none" xmlns="http://www.w3.org/2000/svg"><path d="M19.634 3.354A11.421 11.421 0 0011.54 0C5.21 0 .08 5.111.08 11.42c0 1.997.561 3.993 1.523 5.67L0 23l6.09-1.597a11.718 11.718 0 005.45 1.357c6.331 0 11.46-5.11 11.46-11.42-.08-2.955-1.202-5.83-3.366-7.986zm-2.564 12.14c-.24.638-1.363 1.277-1.924 1.357-.48.08-1.122.08-1.763-.08-.4-.16-.961-.32-1.602-.64-2.886-1.197-4.729-4.072-4.889-4.312-.16-.16-1.202-1.517-1.202-2.954 0-1.438.721-2.077.962-2.396.24-.32.56-.32.801-.32h.56c.161 0 .402-.08.642.48.24.559.801 1.996.882 2.076.08.16.08.32 0 .479-.08.16-.16.32-.321.48-.16.159-.32.399-.4.478-.161.16-.321.32-.161.56.16.319.721 1.197 1.603 1.996 1.122.958 2.003 1.278 2.324 1.437.32.16.48.08.641-.08.16-.16.721-.798.881-1.117.16-.32.401-.24.642-.16.24.08 1.683.798 1.923.958.32.16.48.24.561.32.08.24.08.798-.16 1.437z" fill="#000"/></svg>