<?xml version="1.0" encoding="utf-8"?><svg viewBox="0 0 119 44" xmlns="http://www.w3.org/2000/svg" xmlns:xlink="http://www.w3.org/1999/xlink"><style>:root>svg{display:none}:root>svg:target{display:block}</style><svg fill="none" viewBox="0 0 28 22" id="contacts_mail" xmlns="http://www.w3.org/2000/svg"><path d="M25.556 1H2.444C1.647 1 1 1.64 1 2.429V19.57c0 .791.647 1.43 1.444 1.43h23.112c.797 0 1.444-.64 1.444-1.429V2.43C27 1.639 26.353 1 25.556 1z" stroke="#00029C" stroke-width="2" stroke-linecap="round" stroke-linejoin="round"/><path d="m1 2 13.371 11L27 2" stroke="#00029C" stroke-width="2" stroke-linecap="round" stroke-linejoin="round"/></svg><svg fill="none" viewBox="0 0 23 29" id="location" xmlns="http://www.w3.org/2000/svg"><path d="M11.385 12.769a2.77 2.77 0 1 0 0-5.538 2.77 2.77 0 0 0 0 5.538z" stroke="#00029C" stroke-width="2" stroke-linecap="round" stroke-linejoin="round"/><path d="M11.385 28s10.384-7.27 10.384-16.615a10.385 10.385 0 0 0-20.769 0C1 20.73 11.385 28 11.385 28z" stroke="#00029C" stroke-width="2" stroke-linecap="round" stroke-linejoin="round"/></svg><svg fill="none" viewBox="0 0 119 44" id="logo" xmlns="http://www.w3.org/2000/svg"><path d="M.015 40.762c.82-1.714 1.463-3.495 2.194-5.253 3.84-9.28 7.667-18.56 11.479-27.839.439-1.07.848-2.146 1.36-3.187a5.124 5.124 0 0 1 4.785-2.948 5.111 5.111 0 0 1 4.603 3.227c4.875 11.853 9.75 23.71 14.624 35.568.175.432.131.52-.337.512h-5.498a.467.467 0 0 1-.534-.351 11470.6 11470.6 0 0 0-11.742-29.744 622.52 622.52 0 0 1-1.397-3.56c-3.846 9.633-7.633 19.15-11.428 28.674a1 1 0 0 0 .577.058h10.361c.388 0 .512.081.497.491v3.949c0 .403-.087.498-.49.49H.009l.007-.087zm113.617.132h-5.981a.47.47 0 0 1-.534-.352 6401.202 6401.202 0 0 0-7.765-19.655.234.234 0 0 1 0-.103c0-.095.11-.08.175-.08h5.55c.3 0 .373.139.468.373 1.097 2.674 2.193 5.348 3.29 8.059a.681.681 0 0 0 .183.27 13.285 13.285 0 0 0 2.149-4.395c1.36-5.062.505-9.721-2.807-13.81a13.888 13.888 0 0 0-8.847-5.128 14.374 14.374 0 0 0-10.068 2.205 14.424 14.424 0 0 0-6.018 8.382 14.605 14.605 0 0 0 2.778 13.472 13.888 13.888 0 0 0 8.526 5.128c1.208.195 2.434.259 3.656.19a.51.51 0 0 1 .57.396c.57 1.466 1.155 2.93 1.74 4.396.11.278.161.396-.248.447a20.274 20.274 0 0 1-15.735-4.066A19.785 19.785 0 0 1 77.3 24.9a20.084 20.084 0 0 1 3.787-16.586A20.213 20.213 0 0 1 92.427.99a19.048 19.048 0 0 1 5.711-.593 20.372 20.372 0 0 1 14.77 7.143 19.322 19.322 0 0 1 4.584 9.78 19.812 19.812 0 0 1-4.263 16.117 20.041 20.041 0 0 1-1.52 1.641.534.534 0 0 0-.147.733c.695 1.633 1.353 3.274 2.026 4.915.014.037.022.037.044.169zM59.342 7.692H45.406c-.439 0-.556-.095-.548-.542V2.234c0-.344.088-.44.438-.432h28.077c.351 0 .446.08.446.432v4.967c0 .396-.095.491-.49.491-4.664-.005-9.327-.005-13.987 0zm0 33.202h-13.98c-.373 0-.512-.052-.504-.477v-5.01c0-.36.102-.44.446-.44h28.07c.401 0 .445.139.438.483v4.96c0 .41-.102.49-.497.484-4.65-.008-9.315 0-13.973 0zm-4.058-16.718h-9.93c-.387 0-.504-.08-.496-.491v-5.011c0-.359.102-.432.446-.432h20.004c.351 0 .498.051.49.454v5.01c0 .39-.124.462-.482.462-3.349 0-6.69.008-10.032.008z" fill="#00029C"/></svg><svg fill="none" viewBox="0 0 119 44" id="logo_white" xmlns="http://www.w3.org/2000/svg"><path d="M.015 40.762c.82-1.714 1.463-3.495 2.194-5.253 3.84-9.28 7.667-18.56 11.479-27.839.439-1.07.848-2.146 1.36-3.187a5.124 5.124 0 0 1 4.785-2.948 5.111 5.111 0 0 1 4.603 3.227c4.875 11.853 9.75 23.71 14.624 35.568.175.432.131.52-.337.512h-5.498a.467.467 0 0 1-.534-.351 11470.6 11470.6 0 0 0-11.742-29.744 622.52 622.52 0 0 1-1.397-3.56c-3.846 9.633-7.633 19.15-11.428 28.674a1 1 0 0 0 .577.058h10.361c.388 0 .512.081.497.491v3.949c0 .403-.087.498-.49.49H.009l.007-.087zm113.617.132h-5.981a.47.47 0 0 1-.534-.352 6401.202 6401.202 0 0 0-7.765-19.655.234.234 0 0 1 0-.103c0-.095.11-.08.175-.08h5.55c.3 0 .373.139.468.373 1.097 2.674 2.193 5.348 3.29 8.059a.681.681 0 0 0 .183.27 13.285 13.285 0 0 0 2.149-4.395c1.36-5.062.505-9.721-2.807-13.81a13.888 13.888 0 0 0-8.847-5.128 14.374 14.374 0 0 0-10.068 2.205 14.424 14.424 0 0 0-6.018 8.382 14.605 14.605 0 0 0 2.778 13.472 13.888 13.888 0 0 0 8.526 5.128c1.208.195 2.434.259 3.656.19a.51.51 0 0 1 .57.396c.57 1.466 1.155 2.93 1.74 4.396.11.278.161.396-.248.447a20.274 20.274 0 0 1-15.735-4.066A19.785 19.785 0 0 1 77.3 24.9a20.084 20.084 0 0 1 3.787-16.586A20.213 20.213 0 0 1 92.427.99a19.048 19.048 0 0 1 5.711-.593 20.372 20.372 0 0 1 14.77 7.143 19.322 19.322 0 0 1 4.584 9.78 19.812 19.812 0 0 1-4.263 16.117 20.041 20.041 0 0 1-1.52 1.641.534.534 0 0 0-.147.733c.695 1.633 1.353 3.274 2.026 4.915.014.037.022.037.044.169zM59.342 7.692H45.406c-.439 0-.556-.095-.548-.542V2.234c0-.344.088-.44.438-.432h28.077c.351 0 .446.08.446.432v4.967c0 .396-.095.491-.49.491-4.664-.005-9.327-.005-13.987 0zm0 33.202h-13.98c-.373 0-.512-.052-.504-.477v-5.01c0-.36.102-.44.446-.44h28.07c.401 0 .445.139.438.483v4.96c0 .41-.102.49-.497.484-4.65-.008-9.315 0-13.973 0zm-4.058-16.718h-9.93c-.387 0-.504-.08-.496-.491v-5.011c0-.359.102-.432.446-.432h20.004c.351 0 .498.051.49.454v5.01c0 .39-.124.462-.482.462-3.349 0-6.69.008-10.032.008z" fill="#fff"/></svg><svg fill="none" viewBox="0 0 24 24" id="mail_blue" xmlns="http://www.w3.org/2000/svg"><path fill-rule="evenodd" clip-rule="evenodd" d="M13.553 13.817a2.659 2.659 0 0 1-1.543.482c-.54 0-1.08-.154-1.543-.482L2.597 8.37A.38.38 0 0 0 2 8.677v9.607c0 .616.25 1.174.636 1.579.405.423.984.692 1.62.692h15.488c.636 0 1.215-.269 1.62-.692.385-.405.636-.963.636-1.58V8.678c0-.308-.347-.5-.598-.308l-7.85 5.448z" fill="#00029C"/><path fill-rule="evenodd" clip-rule="evenodd" d="M11.354 12.547c.386.27.926.27 1.312 0l8.814-6.103c.173-.116.212-.366.096-.54A2.266 2.266 0 0 0 19.763 5H4.276c-.733 0-1.388.347-1.813.905a.363.363 0 0 0 .097.539l8.794 6.103z" fill="#00029C"/></svg><svg fill="none" viewBox="0 0 24 24" id="mail_white" xmlns="http://www.w3.org/2000/svg"><path fill-rule="evenodd" clip-rule="evenodd" d="M13.553 13.817a2.659 2.659 0 0 1-1.543.482c-.54 0-1.08-.154-1.543-.482L2.597 8.37A.38.38 0 0 0 2 8.677v9.607c0 .616.25 1.174.636 1.579.405.423.984.692 1.62.692h15.488c.636 0 1.215-.269 1.62-.692.385-.405.636-.963.636-1.58V8.678c0-.308-.347-.5-.598-.308l-7.85 5.448z" fill="#fff"/><path fill-rule="evenodd" clip-rule="evenodd" d="M11.354 12.547c.386.27.926.27 1.312 0l8.814-6.103c.173-.116.212-.366.096-.54A2.266 2.266 0 0 0 19.763 5H4.276c-.733 0-1.388.347-1.813.905a.363.363 0 0 0 .097.539l8.794 6.103z" fill="#fff"/></svg><svg fill="none" viewBox="0 0 24 24" id="phone" xmlns="http://www.w3.org/2000/svg"><path d="M6.678 1H3.316A2.316 2.316 0 0 0 1 3.316C1 14.187 9.813 23 20.684 23A2.316 2.316 0 0 0 23 20.684v-3.362c0-1-.608-1.899-1.537-2.27l-3.221-1.288a2.444 2.444 0 0 0-2.473.391l-.832.694c-.971.81-2.4.744-3.293-.15L9.3 12.356a2.444 2.444 0 0 1-.15-3.293l.694-.832c.575-.69.725-1.64.391-2.473L8.948 2.537A2.444 2.444 0 0 0 6.678 1z" stroke="#01049B" stroke-width="2" stroke-linecap="round" stroke-linejoin="round"/></svg><svg fill="none" viewBox="0 0 28 25" id="social" xmlns="http://www.w3.org/2000/svg"><path d="M19.692 7h5.846C26.346 7 27 7.634 27 8.417V24l-4.872-3.923a1.49 1.49 0 0 0-.934-.327H9.462C8.654 19.75 8 19.116 8 18.333v-4.25" stroke="#01049B" stroke-width="2" stroke-linecap="round" stroke-linejoin="round"/><path d="M18.538 1H2.462C1.654 1 1 1.634 1 2.417V18l4.872-3.923a1.49 1.49 0 0 1 .934-.327h11.732c.808 0 1.462-.634 1.462-1.417V2.417C20 1.634 19.346 1 18.538 1z" stroke="#01049B" stroke-width="2" stroke-linecap="round" stroke-linejoin="round"/></svg><svg fill="none" viewBox="0 0 21 19" id="telegram_black" xmlns="http://www.w3.org/2000/svg"><path d="M21 .673 17.678 18.21s-.465 1.216-1.741.633l-7.665-6.154-.035-.018c1.035-.973 9.063-8.532 9.414-8.874.543-.53.206-.847-.425-.446L5.368 11.236.793 9.624s-.72-.268-.789-.851c-.07-.585.813-.9.813-.9L19.467.21S21-.494 21 .673z" fill="#000"/></svg><svg fill="none" viewBox="0 0 24 24" id="telegram_blue" xmlns="http://www.w3.org/2000/svg"><path d="M20.59 4.684c.253-1.031-.525-1.946-1.362-1.615L2.488 9.55c-.603.234-.661 1.246-.097 1.538l3.153 1.557c.604.292 1.285.253 1.888-.136l8.02-5.178c.233-.155.447.234.233.448L9.69 13.62c-.584.564-.584 1.634-.02 2.14l5.51 4.983c.622.565 1.517.156 1.75-.778l3.66-15.28z" fill="#00029C"/></svg><svg fill="none" viewBox="0 0 24 24" id="telegram_white" xmlns="http://www.w3.org/2000/svg"><path d="M20.59 4.684c.253-1.031-.525-1.946-1.362-1.615L2.488 9.55c-.603.234-.661 1.246-.097 1.538l3.153 1.557c.604.292 1.285.253 1.888-.136l8.02-5.178c.233-.155.447.234.233.448L9.69 13.62c-.584.564-.584 1.634-.02 2.14l5.51 4.983c.622.565 1.517.156 1.75-.778l3.66-15.28z" fill="#fff"/></svg><svg fill="none" viewBox="0 0 23 23" id="whatsapp_black" xmlns="http://www.w3.org/2000/svg"><path d="M19.634 3.354A11.421 11.421 0 0 0 11.54 0C5.21 0 .08 5.111.08 11.42c0 1.997.561 3.993 1.523 5.67L0 23l6.09-1.597a11.718 11.718 0 0 0 5.45 1.357c6.331 0 11.46-5.11 11.46-11.42-.08-2.955-1.202-5.83-3.366-7.986zm-2.564 12.14c-.24.638-1.363 1.277-1.924 1.357-.48.08-1.122.08-1.763-.08-.4-.16-.961-.32-1.602-.64-2.886-1.197-4.729-4.072-4.889-4.312-.16-.16-1.202-1.517-1.202-2.954 0-1.438.721-2.077.962-2.396.24-.32.56-.32.801-.32h.56c.161 0 .402-.08.642.48.24.559.801 1.996.882 2.076.08.16.08.32 0 .479-.08.16-.16.32-.321.48-.16.159-.32.399-.4.478-.161.16-.321.32-.161.56.16.319.721 1.197 1.603 1.996 1.122.958 2.003 1.278 2.324 1.437.32.16.48.08.641-.08.16-.16.721-.798.881-1.117.16-.32.401-.24.642-.16.24.08 1.683.798 1.923.958.32.16.48.24.561.32.08.24.08.798-.16 1.437z" fill="#000"/></svg><svg fill="none" viewBox="0 0 24 24" id="whatsapp_blue" xmlns="http://www.w3.org/2000/svg"><path fill-rule="evenodd" clip-rule="evenodd" d="M18.38 5.616A9.078 9.078 0 0 0 11.99 3C7.064 3 3 7.06 3 11.98c0 1.548.461 3.034 1.236 4.353a.519.519 0 0 1 .021.167L3.21 20.205c-.105.335.21.67.565.586l3.898-.942c.042-.021.105 0 .147.02C9.119 20.562 10.523 21 12.01 21c4.946 0 8.99-4.06 8.99-8.98a9.07 9.07 0 0 0-2.62-6.404z" fill="#00029C"/><path fill-rule="evenodd" clip-rule="evenodd" d="M16.139 13.82c-.23-.104-1.341-.648-1.53-.732-.189-.083-.356-.104-.503.105-.147.23-.587.732-.712.879-.126.147-.273.168-.482.063-.23-.105-.943-.356-1.803-1.11-.67-.585-1.131-1.339-1.257-1.548-.125-.23-.02-.356.105-.46.105-.105.23-.273.335-.399.105-.125.147-.23.23-.376.085-.147.043-.272-.02-.398-.063-.105-.503-1.214-.692-1.674-.21-.419-.398-.356-.524-.356h-.419a.903.903 0 0 0-.607.272c-.21.23-.776.774-.776 1.884 0 1.109.797 2.176.922 2.323.105.147 1.593 2.428 3.835 3.39.524.23.964.377 1.278.482a3.09 3.09 0 0 0 1.425.084c.42-.063 1.341-.544 1.53-1.068.189-.523.189-.983.126-1.067-.084-.105-.23-.168-.461-.293z" fill="#fff"/></svg><svg fill="none" viewBox="0 0 24 24" id="whatsapp_white" xmlns="http://www.w3.org/2000/svg"><path fill-rule="evenodd" clip-rule="evenodd" d="M18.38 5.616A9.078 9.078 0 0 0 11.99 3C7.064 3 3 7.06 3 11.98c0 1.548.461 3.034 1.236 4.353a.519.519 0 0 1 .021.167L3.21 20.205c-.105.335.21.67.565.586l3.898-.942c.042-.021.105 0 .147.02C9.119 20.562 10.523 21 12.01 21c4.946 0 8.99-4.06 8.99-8.98a9.07 9.07 0 0 0-2.62-6.404z" fill="#fff"/><path fill-rule="evenodd" clip-rule="evenodd" d="M16.139 13.82c-.23-.104-1.341-.648-1.53-.732-.189-.083-.356-.104-.503.105-.147.23-.587.732-.712.879-.126.147-.273.168-.482.063-.23-.105-.943-.356-1.803-1.11-.67-.585-1.131-1.339-1.257-1.548-.125-.23-.02-.356.105-.46.105-.105.23-.273.335-.399.105-.125.147-.23.23-.376.085-.147.043-.272-.02-.398-.063-.105-.503-1.214-.692-1.674-.21-.419-.398-.356-.524-.356h-.419a.903.903 0 0 0-.607.272c-.21.23-.776.774-.776 1.884 0 1.109.797 2.176.922 2.323.105.147 1.593 2.428 3.835 3.39.524.23.964.377 1.278.482a3.09 3.09 0 0 0 1.425.084c.42-.063 1.341-.544 1.53-1.068.189-.523.189-.983.126-1.067-.084-.105-.23-.168-.461-.293z" fill="#01049B"/></svg></svg>